;PTH Drill file created by EasyEDA 
M48
;Holesize 1 = 0.059 INCH
T01C0.059
;Holesize 2 = 0.032 INCH
T02C0.032
;Holesize 3 = 0.028 INCH
T03C0.028
;Holesize 4 = 0.035 INCH
T04C0.035
INCH,00.0000
%
G05
G90
T01
X006319Y031650
X006319Y023400
T02
X004819Y024650
X005819Y024650
T03
X012519Y021150
X010706Y020303
X006919Y027250
X007342Y026344
X007765Y025438
X008188Y024532
X008610Y023625
X009032Y022719
X009456Y021813
X012175Y023080
X011752Y023986
X011328Y024892
X010906Y025798
X010484Y026705
X010061Y027611
X009639Y028517
T04
X008939Y017150
X011500Y017150
M30
