G04 ---------------------------- Layer name :BOTTOM LAYER*
G04 easyEDA 0.1*
G04 Scale: 100 percent, Rotated: No, Reflected: No *
G04 Dimensions in inches *
G04 leading zeros omitted , absolute positions ,2 integer and 4 * 
%FSLAX24Y24*%
%MOIN*%
G90*
G70D02*

%ADD10C,0.010000*%
%ADD12R,0.165354X0.137795*%
%ADD13R,0.098425X0.196850*%
%ADD14C,0.078740*%
%ADD16R,0.066000X0.066000*%
%ADD17C,0.066000*%
%ADD19C,0.070000*%
%ADD22C,0.055000*%
%ADD24C,0.074000*%

%LPD*%
G54D10*
G01X6319Y31650D02*
G01X6319Y31650D01*
G01X6319Y23400D02*
G01X6319Y23400D01*

%LPD*%
G36*
G01X2195Y11684D02*
G01X1667Y11684D01*
G01X1667Y11796D01*
G01X2195Y11796D01*
G01X2195Y11684D01*
G37*
G36*
G01X2051Y11900D02*
G01X1667Y11900D01*
G01X1667Y12011D01*
G01X2051Y12011D01*
G01X2051Y11900D01*
G37*
G36*
G01X2195Y11900D02*
G01X2115Y11900D01*
G01X2115Y12011D01*
G01X2195Y12011D01*
G01X2195Y11900D01*
G37*
G36*
G01X2107Y12115D02*
G01X1667Y12115D01*
G01X1667Y12228D01*
G01X1991Y12228D01*
G01X1991Y12380D01*
G01X2051Y12380D01*
G01X2051Y12228D01*
G01X2115Y12228D01*
G01X2115Y12228D01*
G01X2124Y12229D01*
G01X2130Y12234D01*
G01X2134Y12243D01*
G01X2135Y12255D01*
G01X2135Y12380D01*
G01X2195Y12380D01*
G01X2195Y12236D01*
G01X2195Y12236D01*
G01X2194Y12209D01*
G01X2190Y12185D01*
G01X2183Y12164D01*
G01X2174Y12147D01*
G01X2162Y12133D01*
G01X2147Y12124D01*
G01X2128Y12118D01*
G01X2107Y12115D01*
G37*
G36*
G01X1963Y12459D02*
G01X1755Y12459D01*
G01X1755Y12459D01*
G01X1734Y12462D01*
G01X1716Y12468D01*
G01X1701Y12477D01*
G01X1689Y12491D01*
G01X1680Y12508D01*
G01X1673Y12529D01*
G01X1669Y12553D01*
G01X1667Y12580D01*
G01X1667Y12892D01*
G01X1727Y12892D01*
G01X1727Y12600D01*
G01X1727Y12600D01*
G01X1729Y12587D01*
G01X1733Y12578D01*
G01X1739Y12573D01*
G01X1747Y12571D01*
G01X1847Y12571D01*
G01X1847Y12907D01*
G01X1963Y12907D01*
G01X1963Y12907D01*
G01X1984Y12905D01*
G01X2003Y12899D01*
G01X2018Y12890D01*
G01X2030Y12876D01*
G01X2039Y12859D01*
G01X2046Y12838D01*
G01X2050Y12814D01*
G01X2051Y12788D01*
G01X2051Y12580D01*
G01X2051Y12580D01*
G01X2050Y12553D01*
G01X2046Y12529D01*
G01X2039Y12508D01*
G01X2030Y12491D01*
G01X2018Y12477D01*
G01X2003Y12468D01*
G01X1984Y12462D01*
G01X1963Y12459D01*
G37*
G36*
G01X2051Y13011D02*
G01X1499Y13011D01*
G01X1499Y13123D01*
G01X1667Y13123D01*
G01X1667Y13340D01*
G01X1667Y13340D01*
G01X1669Y13366D01*
G01X1673Y13390D01*
G01X1680Y13411D01*
G01X1689Y13428D01*
G01X1701Y13442D01*
G01X1716Y13451D01*
G01X1734Y13457D01*
G01X1755Y13459D01*
G01X1963Y13459D01*
G01X1963Y13459D01*
G01X1984Y13457D01*
G01X2003Y13451D01*
G01X2018Y13442D01*
G01X2030Y13428D01*
G01X2039Y13411D01*
G01X2046Y13390D01*
G01X2050Y13366D01*
G01X2051Y13340D01*
G01X2051Y13011D01*
G37*
G36*
G01X1819Y13555D02*
G01X1755Y13555D01*
G01X1755Y13555D01*
G01X1734Y13558D01*
G01X1716Y13564D01*
G01X1701Y13573D01*
G01X1689Y13587D01*
G01X1680Y13604D01*
G01X1673Y13625D01*
G01X1669Y13649D01*
G01X1667Y13676D01*
G01X1667Y14003D01*
G01X1963Y14003D01*
G01X1963Y14003D01*
G01X1984Y14001D01*
G01X2003Y13995D01*
G01X2018Y13986D01*
G01X2030Y13972D01*
G01X2039Y13955D01*
G01X2046Y13934D01*
G01X2050Y13910D01*
G01X2051Y13884D01*
G01X2051Y13588D01*
G01X1991Y13588D01*
G01X1991Y13863D01*
G01X1991Y13863D01*
G01X1990Y13876D01*
G01X1986Y13885D01*
G01X1980Y13890D01*
G01X1971Y13892D01*
G01X1907Y13892D01*
G01X1907Y13676D01*
G01X1907Y13676D01*
G01X1906Y13649D01*
G01X1902Y13625D01*
G01X1895Y13604D01*
G01X1886Y13587D01*
G01X1874Y13573D01*
G01X1859Y13564D01*
G01X1840Y13558D01*
G01X1819Y13555D01*
G37*
G36*
G01X2195Y14107D02*
G01X1755Y14107D01*
G01X1755Y14107D01*
G01X1734Y14110D01*
G01X1716Y14116D01*
G01X1701Y14125D01*
G01X1689Y14139D01*
G01X1680Y14156D01*
G01X1673Y14177D01*
G01X1669Y14201D01*
G01X1667Y14228D01*
G01X1667Y14371D01*
G01X1727Y14371D01*
G01X1727Y14248D01*
G01X1727Y14248D01*
G01X1729Y14235D01*
G01X1733Y14226D01*
G01X1739Y14221D01*
G01X1747Y14219D01*
G01X1991Y14219D01*
G01X1991Y14371D01*
G01X2051Y14371D01*
G01X2051Y14219D01*
G01X2195Y14219D01*
G01X2195Y14107D01*
G37*
G36*
G01X1963Y14459D02*
G01X1755Y14459D01*
G01X1755Y14459D01*
G01X1734Y14462D01*
G01X1716Y14468D01*
G01X1701Y14477D01*
G01X1689Y14491D01*
G01X1680Y14508D01*
G01X1673Y14529D01*
G01X1669Y14553D01*
G01X1667Y14580D01*
G01X1667Y14876D01*
G01X1727Y14876D01*
G01X1727Y14600D01*
G01X1727Y14600D01*
G01X1729Y14587D01*
G01X1733Y14578D01*
G01X1739Y14573D01*
G01X1747Y14571D01*
G01X1971Y14571D01*
G01X1971Y14571D01*
G01X1980Y14573D01*
G01X1986Y14578D01*
G01X1990Y14587D01*
G01X1991Y14600D01*
G01X1991Y14876D01*
G01X2051Y14876D01*
G01X2051Y14580D01*
G01X2051Y14580D01*
G01X2050Y14553D01*
G01X2046Y14529D01*
G01X2039Y14508D01*
G01X2030Y14491D01*
G01X2018Y14477D01*
G01X2003Y14468D01*
G01X1984Y14462D01*
G01X1963Y14459D01*
G37*
G36*
G01X2195Y14963D02*
G01X1667Y14963D01*
G01X1667Y15076D01*
G01X1991Y15076D01*
G01X1991Y15271D01*
G01X1991Y15271D01*
G01X1990Y15284D01*
G01X1986Y15293D01*
G01X1980Y15298D01*
G01X1971Y15300D01*
G01X1667Y15300D01*
G01X1667Y15411D01*
G01X1963Y15411D01*
G01X1963Y15411D01*
G01X1984Y15409D01*
G01X2003Y15403D01*
G01X2018Y15394D01*
G01X2030Y15380D01*
G01X2039Y15363D01*
G01X2046Y15342D01*
G01X2050Y15318D01*
G01X2051Y15292D01*
G01X2051Y15076D01*
G01X2195Y15076D01*
G01X2195Y14963D01*
G37*
G36*
G01X1763Y15523D02*
G01X1667Y15523D01*
G01X1667Y15644D01*
G01X1763Y15644D01*
G01X1763Y15523D01*
G37*
G36*
G01X1963Y15755D02*
G01X1755Y15755D01*
G01X1755Y15755D01*
G01X1734Y15758D01*
G01X1716Y15764D01*
G01X1701Y15773D01*
G01X1689Y15787D01*
G01X1680Y15804D01*
G01X1673Y15825D01*
G01X1669Y15849D01*
G01X1667Y15876D01*
G01X1667Y16084D01*
G01X1667Y16084D01*
G01X1669Y16110D01*
G01X1673Y16134D01*
G01X1680Y16155D01*
G01X1689Y16172D01*
G01X1701Y16186D01*
G01X1716Y16195D01*
G01X1734Y16201D01*
G01X1755Y16203D01*
G01X1963Y16203D01*
G01X1963Y16203D01*
G01X1984Y16201D01*
G01X2003Y16195D01*
G01X2018Y16186D01*
G01X2030Y16172D01*
G01X2039Y16155D01*
G01X2046Y16134D01*
G01X2050Y16110D01*
G01X2051Y16084D01*
G01X2051Y15876D01*
G01X2051Y15876D01*
G01X2050Y15849D01*
G01X2046Y15825D01*
G01X2039Y15804D01*
G01X2030Y15787D01*
G01X2018Y15773D01*
G01X2003Y15764D01*
G01X1984Y15758D01*
G01X1963Y15755D01*
G37*
G36*
G01X1963Y16307D02*
G01X1667Y16307D01*
G01X1667Y16419D01*
G01X1971Y16419D01*
G01X1971Y16419D01*
G01X1980Y16421D01*
G01X1986Y16426D01*
G01X1990Y16435D01*
G01X1991Y16448D01*
G01X1991Y16571D01*
G01X2051Y16571D01*
G01X2051Y16428D01*
G01X2051Y16428D01*
G01X2050Y16401D01*
G01X2046Y16377D01*
G01X2039Y16356D01*
G01X2030Y16339D01*
G01X2018Y16325D01*
G01X2003Y16316D01*
G01X1984Y16310D01*
G01X1963Y16307D01*
G37*
G36*
G01X1963Y16652D02*
G01X1755Y16652D01*
G01X1755Y16652D01*
G01X1734Y16654D01*
G01X1716Y16660D01*
G01X1701Y16669D01*
G01X1689Y16683D01*
G01X1680Y16700D01*
G01X1673Y16721D01*
G01X1669Y16745D01*
G01X1667Y16771D01*
G01X1667Y16988D01*
G01X1587Y16988D01*
G01X1587Y16988D01*
G01X1575Y16985D01*
G01X1566Y16977D01*
G01X1561Y16966D01*
G01X1559Y16952D01*
G01X1559Y16667D01*
G01X1499Y16667D01*
G01X1499Y16980D01*
G01X1499Y16980D01*
G01X1501Y17006D01*
G01X1505Y17030D01*
G01X1512Y17051D01*
G01X1521Y17068D01*
G01X1533Y17082D01*
G01X1548Y17091D01*
G01X1566Y17097D01*
G01X1587Y17100D01*
G01X2051Y17100D01*
G01X2051Y16771D01*
G01X2051Y16771D01*
G01X2050Y16745D01*
G01X2046Y16721D01*
G01X2039Y16700D01*
G01X2030Y16683D01*
G01X2018Y16669D01*
G01X2003Y16660D01*
G01X1984Y16654D01*
G01X1963Y16652D01*
G37*

%LPC*%
G36*
G01X1907Y12796D02*
G01X1907Y12571D01*
G01X1971Y12571D01*
G01X1971Y12571D01*
G01X1980Y12573D01*
G01X1986Y12578D01*
G01X1990Y12587D01*
G01X1991Y12600D01*
G01X1991Y12767D01*
G01X1991Y12767D01*
G01X1990Y12780D01*
G01X1986Y12789D01*
G01X1980Y12794D01*
G01X1971Y12796D01*
G01X1907Y12796D01*
G37*
G36*
G01X1727Y13319D02*
G01X1727Y13123D01*
G01X1991Y13123D01*
G01X1991Y13319D01*
G01X1991Y13319D01*
G01X1990Y13332D01*
G01X1986Y13341D01*
G01X1980Y13346D01*
G01X1971Y13348D01*
G01X1747Y13348D01*
G01X1747Y13348D01*
G01X1739Y13346D01*
G01X1733Y13341D01*
G01X1729Y13332D01*
G01X1727Y13319D01*
G37*
G36*
G01X1747Y13667D02*
G01X1747Y13667D01*
G01X1827Y13667D01*
G01X1827Y13667D01*
G01X1836Y13669D01*
G01X1842Y13674D01*
G01X1846Y13683D01*
G01X1847Y13696D01*
G01X1847Y13892D01*
G01X1727Y13892D01*
G01X1727Y13696D01*
G01X1727Y13696D01*
G01X1729Y13683D01*
G01X1733Y13674D01*
G01X1739Y13669D01*
G01X1747Y13667D01*
G37*
G36*
G01X1747Y15867D02*
G01X1747Y15867D01*
G01X1971Y15867D01*
G01X1971Y15867D01*
G01X1980Y15869D01*
G01X1986Y15874D01*
G01X1990Y15883D01*
G01X1991Y15896D01*
G01X1991Y16063D01*
G01X1991Y16063D01*
G01X1990Y16076D01*
G01X1986Y16085D01*
G01X1980Y16090D01*
G01X1971Y16092D01*
G01X1747Y16092D01*
G01X1747Y16092D01*
G01X1739Y16090D01*
G01X1733Y16085D01*
G01X1729Y16076D01*
G01X1727Y16063D01*
G01X1727Y15896D01*
G01X1727Y15896D01*
G01X1729Y15883D01*
G01X1733Y15874D01*
G01X1739Y15869D01*
G01X1747Y15867D01*
G37*
G36*
G01X1747Y16763D02*
G01X1747Y16763D01*
G01X1971Y16763D01*
G01X1971Y16763D01*
G01X1980Y16765D01*
G01X1986Y16770D01*
G01X1990Y16779D01*
G01X1991Y16792D01*
G01X1991Y16988D01*
G01X1727Y16988D01*
G01X1727Y16792D01*
G01X1727Y16792D01*
G01X1729Y16779D01*
G01X1733Y16770D01*
G01X1739Y16765D01*
G01X1747Y16763D01*
G37*

%LPD*%

%LPD*%
G36*
G01X2195Y4703D02*
G01X1667Y4703D01*
G01X1667Y4815D01*
G01X1991Y4815D01*
G01X1991Y5011D01*
G01X1991Y5011D01*
G01X1990Y5024D01*
G01X1986Y5033D01*
G01X1980Y5038D01*
G01X1971Y5040D01*
G01X1667Y5040D01*
G01X1667Y5151D01*
G01X1963Y5151D01*
G01X1963Y5151D01*
G01X1984Y5149D01*
G01X2003Y5143D01*
G01X2018Y5134D01*
G01X2030Y5120D01*
G01X2039Y5103D01*
G01X2046Y5082D01*
G01X2050Y5058D01*
G01X2051Y5032D01*
G01X2051Y4815D01*
G01X2195Y4815D01*
G01X2195Y4703D01*
G37*
G36*
G01X1819Y5248D02*
G01X1755Y5248D01*
G01X1755Y5248D01*
G01X1734Y5250D01*
G01X1716Y5256D01*
G01X1701Y5265D01*
G01X1689Y5279D01*
G01X1680Y5296D01*
G01X1673Y5317D01*
G01X1669Y5341D01*
G01X1667Y5367D01*
G01X1667Y5696D01*
G01X1963Y5696D01*
G01X1963Y5696D01*
G01X1984Y5693D01*
G01X2003Y5687D01*
G01X2018Y5678D01*
G01X2030Y5664D01*
G01X2039Y5647D01*
G01X2046Y5626D01*
G01X2050Y5602D01*
G01X2051Y5576D01*
G01X2051Y5280D01*
G01X1991Y5280D01*
G01X1991Y5555D01*
G01X1991Y5555D01*
G01X1990Y5568D01*
G01X1986Y5577D01*
G01X1980Y5582D01*
G01X1971Y5584D01*
G01X1907Y5584D01*
G01X1907Y5367D01*
G01X1907Y5367D01*
G01X1906Y5341D01*
G01X1902Y5317D01*
G01X1895Y5296D01*
G01X1886Y5279D01*
G01X1874Y5265D01*
G01X1859Y5256D01*
G01X1840Y5250D01*
G01X1819Y5248D01*
G37*
G36*
G01X1963Y5800D02*
G01X1755Y5800D01*
G01X1755Y5800D01*
G01X1734Y5802D01*
G01X1716Y5808D01*
G01X1701Y5817D01*
G01X1689Y5831D01*
G01X1680Y5848D01*
G01X1673Y5869D01*
G01X1669Y5893D01*
G01X1667Y5919D01*
G01X1667Y6215D01*
G01X1727Y6215D01*
G01X1727Y5940D01*
G01X1727Y5940D01*
G01X1729Y5927D01*
G01X1733Y5918D01*
G01X1739Y5913D01*
G01X1747Y5911D01*
G01X1971Y5911D01*
G01X1971Y5911D01*
G01X1980Y5913D01*
G01X1986Y5918D01*
G01X1990Y5927D01*
G01X1991Y5940D01*
G01X1991Y6215D01*
G01X2051Y6215D01*
G01X2051Y5919D01*
G01X2051Y5919D01*
G01X2050Y5893D01*
G01X2046Y5869D01*
G01X2039Y5848D01*
G01X2030Y5831D01*
G01X2018Y5817D01*
G01X2003Y5808D01*
G01X1984Y5802D01*
G01X1963Y5800D01*
G37*
G36*
G01X2195Y6303D02*
G01X1667Y6303D01*
G01X1667Y6415D01*
G01X1731Y6415D01*
G01X1803Y6488D01*
G01X1667Y6623D01*
G01X1667Y6751D01*
G01X1867Y6551D01*
G01X2051Y6736D01*
G01X2051Y6607D01*
G01X1859Y6415D01*
G01X2195Y6415D01*
G01X2195Y6303D01*
G37*
G36*
G01X2195Y6807D02*
G01X1755Y6807D01*
G01X1755Y6807D01*
G01X1734Y6810D01*
G01X1716Y6816D01*
G01X1701Y6825D01*
G01X1689Y6839D01*
G01X1680Y6856D01*
G01X1673Y6877D01*
G01X1669Y6901D01*
G01X1667Y6928D01*
G01X1667Y7071D01*
G01X1727Y7071D01*
G01X1727Y6948D01*
G01X1727Y6948D01*
G01X1729Y6935D01*
G01X1733Y6926D01*
G01X1739Y6921D01*
G01X1747Y6919D01*
G01X1991Y6919D01*
G01X1991Y7071D01*
G01X2051Y7071D01*
G01X2051Y6919D01*
G01X2195Y6919D01*
G01X2195Y6807D01*
G37*
G36*
G01X1963Y7159D02*
G01X1755Y7159D01*
G01X1755Y7159D01*
G01X1734Y7162D01*
G01X1716Y7168D01*
G01X1701Y7177D01*
G01X1689Y7191D01*
G01X1680Y7208D01*
G01X1673Y7229D01*
G01X1669Y7253D01*
G01X1667Y7280D01*
G01X1667Y7592D01*
G01X1727Y7592D01*
G01X1727Y7300D01*
G01X1727Y7300D01*
G01X1729Y7287D01*
G01X1733Y7278D01*
G01X1739Y7273D01*
G01X1747Y7271D01*
G01X1847Y7271D01*
G01X1847Y7607D01*
G01X1963Y7607D01*
G01X1963Y7607D01*
G01X1984Y7605D01*
G01X2003Y7599D01*
G01X2018Y7590D01*
G01X2030Y7576D01*
G01X2039Y7559D01*
G01X2046Y7538D01*
G01X2050Y7514D01*
G01X2051Y7488D01*
G01X2051Y7280D01*
G01X2051Y7280D01*
G01X2050Y7253D01*
G01X2046Y7229D01*
G01X2039Y7208D01*
G01X2030Y7191D01*
G01X2018Y7177D01*
G01X2003Y7168D01*
G01X1984Y7162D01*
G01X1963Y7159D01*
G37*
G36*
G01X1963Y7711D02*
G01X1667Y7711D01*
G01X1667Y7823D01*
G01X1971Y7823D01*
G01X1971Y7823D01*
G01X1980Y7825D01*
G01X1986Y7830D01*
G01X1990Y7839D01*
G01X1991Y7851D01*
G01X1991Y7976D01*
G01X2051Y7976D01*
G01X2051Y7832D01*
G01X2051Y7832D01*
G01X2050Y7805D01*
G01X2046Y7781D01*
G01X2039Y7760D01*
G01X2030Y7743D01*
G01X2018Y7729D01*
G01X2003Y7720D01*
G01X1984Y7714D01*
G01X1963Y7711D01*
G37*
G36*
G01X2051Y8055D02*
G01X1667Y8055D01*
G01X1667Y8167D01*
G01X2051Y8167D01*
G01X2051Y8055D01*
G37*
G36*
G01X2195Y8055D02*
G01X2115Y8055D01*
G01X2115Y8167D01*
G01X2195Y8167D01*
G01X2195Y8055D01*
G37*
G36*
G01X1819Y8263D02*
G01X1755Y8263D01*
G01X1755Y8263D01*
G01X1734Y8266D01*
G01X1716Y8272D01*
G01X1701Y8281D01*
G01X1689Y8295D01*
G01X1680Y8312D01*
G01X1673Y8333D01*
G01X1669Y8357D01*
G01X1667Y8384D01*
G01X1667Y8711D01*
G01X1963Y8711D01*
G01X1963Y8711D01*
G01X1984Y8709D01*
G01X2003Y8703D01*
G01X2018Y8694D01*
G01X2030Y8680D01*
G01X2039Y8663D01*
G01X2046Y8642D01*
G01X2050Y8618D01*
G01X2051Y8592D01*
G01X2051Y8296D01*
G01X1991Y8296D01*
G01X1991Y8571D01*
G01X1991Y8571D01*
G01X1990Y8584D01*
G01X1986Y8593D01*
G01X1980Y8598D01*
G01X1971Y8600D01*
G01X1907Y8600D01*
G01X1907Y8384D01*
G01X1907Y8384D01*
G01X1906Y8357D01*
G01X1902Y8333D01*
G01X1895Y8312D01*
G01X1886Y8295D01*
G01X1874Y8281D01*
G01X1859Y8272D01*
G01X1840Y8266D01*
G01X1819Y8263D01*
G37*
G36*
G01X1763Y8823D02*
G01X1667Y8823D01*
G01X1667Y8944D01*
G01X1763Y8944D01*
G01X1763Y8823D01*
G37*
G36*
G01X1963Y9055D02*
G01X1755Y9055D01*
G01X1755Y9055D01*
G01X1734Y9058D01*
G01X1716Y9064D01*
G01X1701Y9073D01*
G01X1689Y9087D01*
G01X1680Y9104D01*
G01X1673Y9125D01*
G01X1669Y9149D01*
G01X1667Y9176D01*
G01X1667Y9384D01*
G01X1667Y9384D01*
G01X1669Y9410D01*
G01X1673Y9434D01*
G01X1680Y9455D01*
G01X1689Y9472D01*
G01X1701Y9486D01*
G01X1716Y9495D01*
G01X1734Y9501D01*
G01X1755Y9503D01*
G01X1963Y9503D01*
G01X1963Y9503D01*
G01X1984Y9501D01*
G01X2003Y9495D01*
G01X2018Y9486D01*
G01X2030Y9472D01*
G01X2039Y9455D01*
G01X2046Y9434D01*
G01X2050Y9410D01*
G01X2051Y9384D01*
G01X2051Y9176D01*
G01X2051Y9176D01*
G01X2050Y9149D01*
G01X2046Y9125D01*
G01X2039Y9104D01*
G01X2030Y9087D01*
G01X2018Y9073D01*
G01X2003Y9064D01*
G01X1984Y9058D01*
G01X1963Y9055D01*
G37*
G36*
G01X1963Y9607D02*
G01X1667Y9607D01*
G01X1667Y9719D01*
G01X1971Y9719D01*
G01X1971Y9719D01*
G01X1980Y9721D01*
G01X1986Y9726D01*
G01X1990Y9735D01*
G01X1991Y9748D01*
G01X1991Y9871D01*
G01X2051Y9871D01*
G01X2051Y9728D01*
G01X2051Y9728D01*
G01X2050Y9701D01*
G01X2046Y9677D01*
G01X2039Y9656D01*
G01X2030Y9639D01*
G01X2018Y9625D01*
G01X2003Y9616D01*
G01X1984Y9610D01*
G01X1963Y9607D01*
G37*
G36*
G01X1963Y9951D02*
G01X1755Y9951D01*
G01X1755Y9951D01*
G01X1734Y9954D01*
G01X1716Y9960D01*
G01X1701Y9969D01*
G01X1689Y9983D01*
G01X1680Y10000D01*
G01X1673Y10021D01*
G01X1669Y10045D01*
G01X1667Y10071D01*
G01X1667Y10288D01*
G01X1587Y10288D01*
G01X1587Y10288D01*
G01X1575Y10285D01*
G01X1566Y10277D01*
G01X1561Y10266D01*
G01X1559Y10251D01*
G01X1559Y9967D01*
G01X1499Y9967D01*
G01X1499Y10280D01*
G01X1499Y10280D01*
G01X1501Y10306D01*
G01X1505Y10330D01*
G01X1512Y10351D01*
G01X1521Y10368D01*
G01X1533Y10382D01*
G01X1548Y10391D01*
G01X1566Y10397D01*
G01X1587Y10400D01*
G01X2051Y10400D01*
G01X2051Y10071D01*
G01X2051Y10071D01*
G01X2050Y10045D01*
G01X2046Y10021D01*
G01X2039Y10000D01*
G01X2030Y9983D01*
G01X2018Y9969D01*
G01X2003Y9960D01*
G01X1984Y9954D01*
G01X1963Y9951D01*
G37*

%LPC*%
G36*
G01X1747Y5359D02*
G01X1747Y5359D01*
G01X1827Y5359D01*
G01X1827Y5359D01*
G01X1836Y5361D01*
G01X1842Y5366D01*
G01X1846Y5375D01*
G01X1847Y5388D01*
G01X1847Y5584D01*
G01X1727Y5584D01*
G01X1727Y5388D01*
G01X1727Y5388D01*
G01X1729Y5375D01*
G01X1733Y5366D01*
G01X1739Y5361D01*
G01X1747Y5359D01*
G37*
G36*
G01X1907Y7496D02*
G01X1907Y7271D01*
G01X1971Y7271D01*
G01X1971Y7271D01*
G01X1980Y7273D01*
G01X1986Y7278D01*
G01X1990Y7287D01*
G01X1991Y7300D01*
G01X1991Y7467D01*
G01X1991Y7467D01*
G01X1990Y7480D01*
G01X1986Y7489D01*
G01X1980Y7494D01*
G01X1971Y7496D01*
G01X1907Y7496D01*
G37*
G36*
G01X1747Y8376D02*
G01X1747Y8376D01*
G01X1827Y8376D01*
G01X1827Y8376D01*
G01X1836Y8377D01*
G01X1842Y8382D01*
G01X1846Y8391D01*
G01X1847Y8403D01*
G01X1847Y8600D01*
G01X1727Y8600D01*
G01X1727Y8403D01*
G01X1727Y8403D01*
G01X1729Y8391D01*
G01X1733Y8382D01*
G01X1739Y8377D01*
G01X1747Y8376D01*
G37*
G36*
G01X1747Y9167D02*
G01X1747Y9167D01*
G01X1971Y9167D01*
G01X1971Y9167D01*
G01X1980Y9169D01*
G01X1986Y9174D01*
G01X1990Y9183D01*
G01X1991Y9196D01*
G01X1991Y9363D01*
G01X1991Y9363D01*
G01X1990Y9376D01*
G01X1986Y9385D01*
G01X1980Y9390D01*
G01X1971Y9392D01*
G01X1747Y9392D01*
G01X1747Y9392D01*
G01X1739Y9390D01*
G01X1733Y9385D01*
G01X1729Y9376D01*
G01X1727Y9363D01*
G01X1727Y9196D01*
G01X1727Y9196D01*
G01X1729Y9183D01*
G01X1733Y9174D01*
G01X1739Y9169D01*
G01X1747Y9167D01*
G37*
G36*
G01X1747Y10063D02*
G01X1747Y10063D01*
G01X1971Y10063D01*
G01X1971Y10063D01*
G01X1980Y10065D01*
G01X1986Y10070D01*
G01X1990Y10079D01*
G01X1991Y10092D01*
G01X1991Y10288D01*
G01X1727Y10288D01*
G01X1727Y10092D01*
G01X1727Y10092D01*
G01X1729Y10079D01*
G01X1733Y10070D01*
G01X1739Y10065D01*
G01X1747Y10063D01*
G37*

%LPD*%

%LPD*%
G36*
G01X1063Y4664D02*
G01X855Y4664D01*
G01X855Y4664D01*
G01X834Y4666D01*
G01X816Y4672D01*
G01X801Y4681D01*
G01X789Y4695D01*
G01X780Y4712D01*
G01X773Y4733D01*
G01X769Y4757D01*
G01X767Y4784D01*
G01X767Y5112D01*
G01X1296Y5112D01*
G01X1296Y5000D01*
G01X1151Y5000D01*
G01X1151Y4784D01*
G01X1151Y4784D01*
G01X1150Y4757D01*
G01X1146Y4733D01*
G01X1139Y4712D01*
G01X1130Y4695D01*
G01X1118Y4681D01*
G01X1103Y4672D01*
G01X1085Y4666D01*
G01X1063Y4664D01*
G37*
G36*
G01X1063Y5216D02*
G01X855Y5216D01*
G01X855Y5216D01*
G01X834Y5218D01*
G01X816Y5224D01*
G01X801Y5233D01*
G01X789Y5247D01*
G01X780Y5264D01*
G01X773Y5285D01*
G01X769Y5309D01*
G01X767Y5336D01*
G01X767Y5648D01*
G01X828Y5648D01*
G01X828Y5356D01*
G01X828Y5356D01*
G01X829Y5343D01*
G01X833Y5334D01*
G01X839Y5329D01*
G01X848Y5328D01*
G01X948Y5328D01*
G01X948Y5664D01*
G01X1063Y5664D01*
G01X1063Y5664D01*
G01X1085Y5661D01*
G01X1103Y5655D01*
G01X1118Y5646D01*
G01X1130Y5632D01*
G01X1139Y5615D01*
G01X1146Y5594D01*
G01X1150Y5570D01*
G01X1151Y5544D01*
G01X1151Y5336D01*
G01X1151Y5336D01*
G01X1150Y5309D01*
G01X1146Y5285D01*
G01X1139Y5264D01*
G01X1130Y5247D01*
G01X1118Y5233D01*
G01X1103Y5224D01*
G01X1085Y5218D01*
G01X1063Y5216D01*
G37*
G36*
G01X828Y5760D02*
G01X767Y5760D01*
G01X767Y6088D01*
G01X767Y6088D01*
G01X769Y6114D01*
G01X773Y6138D01*
G01X780Y6159D01*
G01X789Y6176D01*
G01X801Y6190D01*
G01X816Y6199D01*
G01X834Y6205D01*
G01X855Y6208D01*
G01X919Y6208D01*
G01X919Y6208D01*
G01X941Y6205D01*
G01X959Y6199D01*
G01X974Y6190D01*
G01X986Y6176D01*
G01X995Y6159D01*
G01X1002Y6138D01*
G01X1006Y6114D01*
G01X1007Y6088D01*
G01X1007Y5900D01*
G01X1007Y5900D01*
G01X1009Y5887D01*
G01X1013Y5878D01*
G01X1019Y5873D01*
G01X1028Y5872D01*
G01X1071Y5872D01*
G01X1071Y5872D01*
G01X1080Y5873D01*
G01X1086Y5878D01*
G01X1090Y5887D01*
G01X1092Y5900D01*
G01X1092Y6176D01*
G01X1151Y6176D01*
G01X1151Y5880D01*
G01X1151Y5880D01*
G01X1150Y5853D01*
G01X1146Y5829D01*
G01X1139Y5808D01*
G01X1130Y5791D01*
G01X1118Y5777D01*
G01X1103Y5768D01*
G01X1085Y5762D01*
G01X1063Y5760D01*
G01X1036Y5760D01*
G01X1036Y5760D01*
G01X1014Y5762D01*
G01X996Y5768D01*
G01X981Y5777D01*
G01X969Y5791D01*
G01X960Y5808D01*
G01X953Y5829D01*
G01X949Y5853D01*
G01X948Y5880D01*
G01X948Y6068D01*
G01X948Y6068D01*
G01X946Y6080D01*
G01X942Y6089D01*
G01X936Y6094D01*
G01X928Y6096D01*
G01X848Y6096D01*
G01X848Y6096D01*
G01X839Y6094D01*
G01X833Y6089D01*
G01X829Y6080D01*
G01X828Y6068D01*
G01X828Y5760D01*
G37*
G36*
G01X1151Y6304D02*
G01X767Y6304D01*
G01X767Y6416D01*
G01X1151Y6416D01*
G01X1151Y6304D01*
G37*
G36*
G01X1296Y6304D02*
G01X1215Y6304D01*
G01X1215Y6416D01*
G01X1296Y6416D01*
G01X1296Y6304D01*
G37*
G36*
G01X1063Y6520D02*
G01X855Y6520D01*
G01X855Y6520D01*
G01X834Y6522D01*
G01X816Y6528D01*
G01X801Y6537D01*
G01X789Y6551D01*
G01X780Y6568D01*
G01X773Y6589D01*
G01X769Y6613D01*
G01X767Y6640D01*
G01X767Y6856D01*
G01X688Y6856D01*
G01X688Y6856D01*
G01X675Y6853D01*
G01X666Y6845D01*
G01X661Y6834D01*
G01X659Y6820D01*
G01X659Y6536D01*
G01X600Y6536D01*
G01X600Y6848D01*
G01X600Y6848D01*
G01X601Y6874D01*
G01X605Y6898D01*
G01X612Y6919D01*
G01X621Y6936D01*
G01X633Y6950D01*
G01X648Y6959D01*
G01X666Y6965D01*
G01X688Y6968D01*
G01X1151Y6968D01*
G01X1151Y6640D01*
G01X1151Y6640D01*
G01X1150Y6613D01*
G01X1146Y6589D01*
G01X1139Y6568D01*
G01X1130Y6551D01*
G01X1118Y6537D01*
G01X1103Y6528D01*
G01X1085Y6522D01*
G01X1063Y6520D01*
G37*
G36*
G01X1151Y7072D02*
G01X767Y7072D01*
G01X767Y7184D01*
G01X1092Y7184D01*
G01X1092Y7380D01*
G01X1092Y7380D01*
G01X1090Y7392D01*
G01X1086Y7401D01*
G01X1080Y7406D01*
G01X1071Y7408D01*
G01X767Y7408D01*
G01X767Y7520D01*
G01X1063Y7520D01*
G01X1063Y7520D01*
G01X1085Y7517D01*
G01X1103Y7511D01*
G01X1118Y7502D01*
G01X1130Y7488D01*
G01X1139Y7471D01*
G01X1146Y7450D01*
G01X1150Y7426D01*
G01X1151Y7400D01*
G01X1151Y7072D01*
G37*
G36*
G01X1063Y7624D02*
G01X855Y7624D01*
G01X855Y7624D01*
G01X834Y7626D01*
G01X816Y7632D01*
G01X801Y7641D01*
G01X789Y7655D01*
G01X780Y7672D01*
G01X773Y7693D01*
G01X769Y7717D01*
G01X767Y7744D01*
G01X767Y8056D01*
G01X828Y8056D01*
G01X828Y7764D01*
G01X828Y7764D01*
G01X829Y7751D01*
G01X833Y7742D01*
G01X839Y7737D01*
G01X848Y7736D01*
G01X948Y7736D01*
G01X948Y8072D01*
G01X1063Y8072D01*
G01X1063Y8072D01*
G01X1085Y8069D01*
G01X1103Y8063D01*
G01X1118Y8054D01*
G01X1130Y8040D01*
G01X1139Y8023D01*
G01X1146Y8002D01*
G01X1150Y7978D01*
G01X1151Y7952D01*
G01X1151Y7744D01*
G01X1151Y7744D01*
G01X1150Y7717D01*
G01X1146Y7693D01*
G01X1139Y7672D01*
G01X1130Y7655D01*
G01X1118Y7641D01*
G01X1103Y7632D01*
G01X1085Y7626D01*
G01X1063Y7624D01*
G37*
G36*
G01X1063Y8176D02*
G01X855Y8176D01*
G01X855Y8176D01*
G01X834Y8178D01*
G01X816Y8184D01*
G01X801Y8193D01*
G01X789Y8207D01*
G01X780Y8224D01*
G01X773Y8245D01*
G01X769Y8269D01*
G01X767Y8296D01*
G01X767Y8624D01*
G01X1296Y8624D01*
G01X1296Y8512D01*
G01X1151Y8512D01*
G01X1151Y8296D01*
G01X1151Y8296D01*
G01X1150Y8269D01*
G01X1146Y8245D01*
G01X1139Y8224D01*
G01X1130Y8207D01*
G01X1118Y8193D01*
G01X1103Y8184D01*
G01X1085Y8178D01*
G01X1063Y8176D01*
G37*
G36*
G01X1151Y9008D02*
G01X767Y9008D01*
G01X767Y9120D01*
G01X1151Y9120D01*
G01X1151Y9008D01*
G37*
G36*
G01X1296Y9008D02*
G01X1215Y9008D01*
G01X1215Y9120D01*
G01X1296Y9120D01*
G01X1296Y9008D01*
G37*
G36*
G01X1151Y9224D02*
G01X767Y9224D01*
G01X767Y9336D01*
G01X1092Y9336D01*
G01X1092Y9532D01*
G01X1092Y9532D01*
G01X1090Y9544D01*
G01X1086Y9553D01*
G01X1080Y9558D01*
G01X1071Y9560D01*
G01X767Y9560D01*
G01X767Y9672D01*
G01X1063Y9672D01*
G01X1063Y9672D01*
G01X1085Y9669D01*
G01X1103Y9663D01*
G01X1118Y9654D01*
G01X1130Y9640D01*
G01X1139Y9623D01*
G01X1146Y9602D01*
G01X1150Y9578D01*
G01X1151Y9552D01*
G01X1151Y9224D01*
G37*
G36*
G01X1151Y10056D02*
G01X767Y10056D01*
G01X767Y10168D01*
G01X1151Y10168D01*
G01X1151Y10056D01*
G37*
G36*
G01X1296Y10056D02*
G01X1215Y10056D01*
G01X1215Y10168D01*
G01X1296Y10168D01*
G01X1296Y10056D01*
G37*
G36*
G01X1151Y10272D02*
G01X767Y10272D01*
G01X767Y10384D01*
G01X1092Y10384D01*
G01X1092Y10580D01*
G01X1092Y10580D01*
G01X1090Y10592D01*
G01X1086Y10601D01*
G01X1080Y10606D01*
G01X1071Y10608D01*
G01X767Y10608D01*
G01X767Y10720D01*
G01X1063Y10720D01*
G01X1063Y10720D01*
G01X1085Y10717D01*
G01X1103Y10711D01*
G01X1118Y10702D01*
G01X1130Y10688D01*
G01X1139Y10671D01*
G01X1146Y10650D01*
G01X1150Y10626D01*
G01X1151Y10600D01*
G01X1151Y10272D01*
G37*
G36*
G01X1063Y10824D02*
G01X855Y10824D01*
G01X855Y10824D01*
G01X834Y10826D01*
G01X816Y10832D01*
G01X801Y10841D01*
G01X789Y10855D01*
G01X780Y10872D01*
G01X773Y10893D01*
G01X769Y10917D01*
G01X767Y10944D01*
G01X767Y11272D01*
G01X1296Y11272D01*
G01X1296Y11160D01*
G01X1151Y11160D01*
G01X1151Y10944D01*
G01X1151Y10944D01*
G01X1150Y10917D01*
G01X1146Y10893D01*
G01X1139Y10872D01*
G01X1130Y10855D01*
G01X1118Y10841D01*
G01X1103Y10832D01*
G01X1085Y10826D01*
G01X1063Y10824D01*
G37*
G36*
G01X1063Y11376D02*
G01X855Y11376D01*
G01X855Y11376D01*
G01X834Y11378D01*
G01X816Y11384D01*
G01X801Y11393D01*
G01X789Y11407D01*
G01X780Y11424D01*
G01X773Y11445D01*
G01X769Y11469D01*
G01X767Y11496D01*
G01X767Y11704D01*
G01X767Y11704D01*
G01X769Y11730D01*
G01X773Y11754D01*
G01X780Y11775D01*
G01X789Y11792D01*
G01X801Y11806D01*
G01X816Y11815D01*
G01X834Y11821D01*
G01X855Y11824D01*
G01X1063Y11824D01*
G01X1063Y11824D01*
G01X1085Y11821D01*
G01X1103Y11815D01*
G01X1118Y11806D01*
G01X1130Y11792D01*
G01X1139Y11775D01*
G01X1146Y11754D01*
G01X1150Y11730D01*
G01X1151Y11704D01*
G01X1151Y11496D01*
G01X1151Y11496D01*
G01X1150Y11469D01*
G01X1146Y11445D01*
G01X1139Y11424D01*
G01X1130Y11407D01*
G01X1118Y11393D01*
G01X1103Y11384D01*
G01X1085Y11378D01*
G01X1063Y11376D01*
G37*
G36*
G01X1151Y11928D02*
G01X767Y11928D01*
G01X767Y12040D01*
G01X1092Y12040D01*
G01X1092Y12236D01*
G01X1092Y12236D01*
G01X1090Y12248D01*
G01X1086Y12257D01*
G01X1080Y12262D01*
G01X1071Y12264D01*
G01X767Y12264D01*
G01X767Y12376D01*
G01X1063Y12376D01*
G01X1063Y12376D01*
G01X1085Y12373D01*
G01X1103Y12367D01*
G01X1118Y12358D01*
G01X1130Y12344D01*
G01X1139Y12327D01*
G01X1146Y12306D01*
G01X1150Y12282D01*
G01X1151Y12256D01*
G01X1151Y11928D01*
G37*
G36*
G01X1063Y12480D02*
G01X855Y12480D01*
G01X855Y12480D01*
G01X834Y12482D01*
G01X816Y12488D01*
G01X801Y12497D01*
G01X789Y12511D01*
G01X780Y12528D01*
G01X773Y12549D01*
G01X769Y12573D01*
G01X767Y12600D01*
G01X767Y12912D01*
G01X828Y12912D01*
G01X828Y12620D01*
G01X828Y12620D01*
G01X829Y12607D01*
G01X833Y12598D01*
G01X839Y12593D01*
G01X848Y12592D01*
G01X948Y12592D01*
G01X948Y12928D01*
G01X1063Y12928D01*
G01X1063Y12928D01*
G01X1085Y12925D01*
G01X1103Y12919D01*
G01X1118Y12910D01*
G01X1130Y12896D01*
G01X1139Y12879D01*
G01X1146Y12858D01*
G01X1150Y12834D01*
G01X1151Y12808D01*
G01X1151Y12600D01*
G01X1151Y12600D01*
G01X1150Y12573D01*
G01X1146Y12549D01*
G01X1139Y12528D01*
G01X1130Y12511D01*
G01X1118Y12497D01*
G01X1103Y12488D01*
G01X1085Y12482D01*
G01X1063Y12480D01*
G37*
G36*
G01X828Y13024D02*
G01X767Y13024D01*
G01X767Y13352D01*
G01X767Y13352D01*
G01X769Y13378D01*
G01X773Y13402D01*
G01X780Y13423D01*
G01X789Y13440D01*
G01X801Y13454D01*
G01X816Y13463D01*
G01X834Y13469D01*
G01X855Y13472D01*
G01X919Y13472D01*
G01X919Y13472D01*
G01X941Y13469D01*
G01X959Y13463D01*
G01X974Y13454D01*
G01X986Y13440D01*
G01X995Y13423D01*
G01X1002Y13402D01*
G01X1006Y13378D01*
G01X1007Y13352D01*
G01X1007Y13164D01*
G01X1007Y13164D01*
G01X1009Y13151D01*
G01X1013Y13142D01*
G01X1019Y13137D01*
G01X1028Y13136D01*
G01X1071Y13136D01*
G01X1071Y13136D01*
G01X1080Y13137D01*
G01X1086Y13142D01*
G01X1090Y13151D01*
G01X1092Y13164D01*
G01X1092Y13440D01*
G01X1151Y13440D01*
G01X1151Y13144D01*
G01X1151Y13144D01*
G01X1150Y13117D01*
G01X1146Y13093D01*
G01X1139Y13072D01*
G01X1130Y13055D01*
G01X1118Y13041D01*
G01X1103Y13032D01*
G01X1085Y13026D01*
G01X1063Y13024D01*
G01X1036Y13024D01*
G01X1036Y13024D01*
G01X1014Y13026D01*
G01X996Y13032D01*
G01X981Y13041D01*
G01X969Y13055D01*
G01X960Y13072D01*
G01X953Y13093D01*
G01X949Y13117D01*
G01X948Y13144D01*
G01X948Y13332D01*
G01X948Y13332D01*
G01X946Y13344D01*
G01X942Y13353D01*
G01X936Y13358D01*
G01X928Y13360D01*
G01X848Y13360D01*
G01X848Y13360D01*
G01X839Y13358D01*
G01X833Y13353D01*
G01X829Y13344D01*
G01X828Y13332D01*
G01X828Y13024D01*
G37*
G36*
G01X1151Y13568D02*
G01X767Y13568D01*
G01X767Y13680D01*
G01X1151Y13680D01*
G01X1151Y13568D01*
G37*
G36*
G01X1296Y13568D02*
G01X1215Y13568D01*
G01X1215Y13680D01*
G01X1296Y13680D01*
G01X1296Y13568D01*
G37*
G36*
G01X919Y13776D02*
G01X855Y13776D01*
G01X855Y13776D01*
G01X834Y13778D01*
G01X816Y13784D01*
G01X801Y13793D01*
G01X789Y13807D01*
G01X780Y13824D01*
G01X773Y13845D01*
G01X769Y13869D01*
G01X767Y13896D01*
G01X767Y14224D01*
G01X1063Y14224D01*
G01X1063Y14224D01*
G01X1085Y14221D01*
G01X1103Y14215D01*
G01X1118Y14206D01*
G01X1130Y14192D01*
G01X1139Y14175D01*
G01X1146Y14154D01*
G01X1150Y14130D01*
G01X1151Y14104D01*
G01X1151Y13808D01*
G01X1092Y13808D01*
G01X1092Y14084D01*
G01X1092Y14084D01*
G01X1090Y14096D01*
G01X1086Y14105D01*
G01X1080Y14110D01*
G01X1071Y14112D01*
G01X1007Y14112D01*
G01X1007Y13896D01*
G01X1007Y13896D01*
G01X1006Y13869D01*
G01X1002Y13845D01*
G01X995Y13824D01*
G01X986Y13807D01*
G01X974Y13793D01*
G01X959Y13784D01*
G01X941Y13778D01*
G01X919Y13776D01*
G37*
G36*
G01X1000Y14604D02*
G01X767Y14604D01*
G01X767Y15156D01*
G01X836Y15156D01*
G01X836Y14724D01*
G01X1003Y14724D01*
G01X1003Y14724D01*
G01X1014Y14726D01*
G01X1021Y14732D01*
G01X1026Y14742D01*
G01X1028Y14756D01*
G01X1028Y15028D01*
G01X1028Y15028D01*
G01X1029Y15056D01*
G01X1034Y15081D01*
G01X1041Y15103D01*
G01X1051Y15122D01*
G01X1065Y15136D01*
G01X1081Y15147D01*
G01X1101Y15153D01*
G01X1123Y15156D01*
G01X1200Y15156D01*
G01X1200Y15156D01*
G01X1222Y15153D01*
G01X1241Y15147D01*
G01X1258Y15136D01*
G01X1272Y15122D01*
G01X1282Y15103D01*
G01X1289Y15081D01*
G01X1294Y15056D01*
G01X1296Y15028D01*
G01X1296Y14644D01*
G01X1228Y14644D01*
G01X1228Y15004D01*
G01X1228Y15004D01*
G01X1226Y15017D01*
G01X1222Y15027D01*
G01X1214Y15033D01*
G01X1203Y15036D01*
G01X1119Y15036D01*
G01X1119Y15036D01*
G01X1109Y15033D01*
G01X1101Y15027D01*
G01X1097Y15017D01*
G01X1096Y15004D01*
G01X1096Y14732D01*
G01X1096Y14732D01*
G01X1094Y14703D01*
G01X1090Y14678D01*
G01X1082Y14656D01*
G01X1072Y14638D01*
G01X1058Y14623D01*
G01X1042Y14612D01*
G01X1022Y14606D01*
G01X1000Y14604D01*
G37*
G36*
G01X1200Y15252D02*
G01X863Y15252D01*
G01X863Y15252D01*
G01X841Y15254D01*
G01X821Y15260D01*
G01X805Y15271D01*
G01X792Y15286D01*
G01X781Y15304D01*
G01X773Y15326D01*
G01X769Y15351D01*
G01X767Y15380D01*
G01X767Y15676D01*
G01X767Y15676D01*
G01X769Y15704D01*
G01X774Y15729D01*
G01X781Y15751D01*
G01X792Y15770D01*
G01X805Y15784D01*
G01X821Y15795D01*
G01X841Y15801D01*
G01X863Y15804D01*
G01X1200Y15804D01*
G01X1200Y15804D01*
G01X1222Y15801D01*
G01X1241Y15795D01*
G01X1258Y15784D01*
G01X1272Y15770D01*
G01X1282Y15751D01*
G01X1289Y15729D01*
G01X1294Y15704D01*
G01X1296Y15676D01*
G01X1296Y15380D01*
G01X1296Y15380D01*
G01X1294Y15351D01*
G01X1290Y15326D01*
G01X1282Y15304D01*
G01X1272Y15286D01*
G01X1258Y15271D01*
G01X1242Y15260D01*
G01X1222Y15254D01*
G01X1200Y15252D01*
G37*
G36*
G01X1296Y16004D02*
G01X1228Y16004D01*
G01X1228Y16164D01*
G01X767Y16164D01*
G01X767Y16284D01*
G01X1296Y16284D01*
G01X1296Y16004D01*
G37*
G36*
G01X980Y16548D02*
G01X863Y16548D01*
G01X863Y16548D01*
G01X841Y16550D01*
G01X821Y16556D01*
G01X805Y16567D01*
G01X792Y16582D01*
G01X781Y16600D01*
G01X773Y16622D01*
G01X769Y16647D01*
G01X767Y16676D01*
G01X767Y16972D01*
G01X767Y16972D01*
G01X769Y17000D01*
G01X774Y17025D01*
G01X781Y17047D01*
G01X792Y17066D01*
G01X805Y17080D01*
G01X821Y17091D01*
G01X841Y17097D01*
G01X863Y17100D01*
G01X980Y17100D01*
G01X980Y17100D01*
G01X1011Y17095D01*
G01X1035Y17082D01*
G01X1052Y17062D01*
G01X1063Y17040D01*
G01X1063Y17040D01*
G01X1075Y17062D01*
G01X1092Y17082D01*
G01X1116Y17095D01*
G01X1148Y17100D01*
G01X1200Y17100D01*
G01X1200Y17100D01*
G01X1222Y17097D01*
G01X1241Y17091D01*
G01X1258Y17080D01*
G01X1272Y17066D01*
G01X1282Y17047D01*
G01X1289Y17025D01*
G01X1294Y17000D01*
G01X1296Y16972D01*
G01X1296Y16676D01*
G01X1296Y16676D01*
G01X1294Y16647D01*
G01X1290Y16622D01*
G01X1282Y16600D01*
G01X1272Y16582D01*
G01X1258Y16567D01*
G01X1242Y16556D01*
G01X1222Y16550D01*
G01X1200Y16548D01*
G01X1148Y16548D01*
G01X1148Y16548D01*
G01X1116Y16552D01*
G01X1092Y16566D01*
G01X1075Y16585D01*
G01X1063Y16608D01*
G01X1063Y16608D01*
G01X1052Y16585D01*
G01X1035Y16566D01*
G01X1011Y16552D01*
G01X980Y16548D01*
G37*

%LPC*%
G36*
G01X848Y4776D02*
G01X848Y4776D01*
G01X1071Y4776D01*
G01X1071Y4776D01*
G01X1080Y4777D01*
G01X1086Y4782D01*
G01X1090Y4791D01*
G01X1092Y4804D01*
G01X1092Y5000D01*
G01X828Y5000D01*
G01X828Y4804D01*
G01X828Y4804D01*
G01X829Y4791D01*
G01X833Y4782D01*
G01X839Y4777D01*
G01X848Y4776D01*
G37*
G36*
G01X1007Y5552D02*
G01X1007Y5328D01*
G01X1071Y5328D01*
G01X1071Y5328D01*
G01X1080Y5329D01*
G01X1086Y5334D01*
G01X1090Y5343D01*
G01X1092Y5356D01*
G01X1092Y5524D01*
G01X1092Y5524D01*
G01X1090Y5536D01*
G01X1086Y5545D01*
G01X1080Y5550D01*
G01X1071Y5552D01*
G01X1007Y5552D01*
G37*
G36*
G01X848Y6632D02*
G01X848Y6632D01*
G01X1071Y6632D01*
G01X1071Y6632D01*
G01X1080Y6633D01*
G01X1086Y6638D01*
G01X1090Y6647D01*
G01X1092Y6660D01*
G01X1092Y6856D01*
G01X828Y6856D01*
G01X828Y6660D01*
G01X828Y6660D01*
G01X829Y6647D01*
G01X833Y6638D01*
G01X839Y6633D01*
G01X848Y6632D01*
G37*
G36*
G01X1007Y7960D02*
G01X1007Y7736D01*
G01X1071Y7736D01*
G01X1071Y7736D01*
G01X1080Y7737D01*
G01X1086Y7742D01*
G01X1090Y7751D01*
G01X1092Y7764D01*
G01X1092Y7932D01*
G01X1092Y7932D01*
G01X1090Y7944D01*
G01X1086Y7953D01*
G01X1080Y7958D01*
G01X1071Y7960D01*
G01X1007Y7960D01*
G37*
G36*
G01X848Y8288D02*
G01X848Y8288D01*
G01X1071Y8288D01*
G01X1071Y8288D01*
G01X1080Y8289D01*
G01X1086Y8294D01*
G01X1090Y8303D01*
G01X1092Y8316D01*
G01X1092Y8512D01*
G01X828Y8512D01*
G01X828Y8316D01*
G01X828Y8316D01*
G01X829Y8303D01*
G01X833Y8294D01*
G01X839Y8289D01*
G01X848Y8288D01*
G37*
G36*
G01X848Y10936D02*
G01X848Y10936D01*
G01X1071Y10936D01*
G01X1071Y10936D01*
G01X1080Y10937D01*
G01X1086Y10942D01*
G01X1090Y10951D01*
G01X1092Y10964D01*
G01X1092Y11160D01*
G01X828Y11160D01*
G01X828Y10964D01*
G01X828Y10964D01*
G01X829Y10951D01*
G01X833Y10942D01*
G01X839Y10937D01*
G01X848Y10936D01*
G37*
G36*
G01X848Y11488D02*
G01X848Y11488D01*
G01X1071Y11488D01*
G01X1071Y11488D01*
G01X1080Y11489D01*
G01X1086Y11494D01*
G01X1090Y11503D01*
G01X1092Y11516D01*
G01X1092Y11684D01*
G01X1092Y11684D01*
G01X1090Y11696D01*
G01X1086Y11705D01*
G01X1080Y11710D01*
G01X1071Y11712D01*
G01X848Y11712D01*
G01X848Y11712D01*
G01X839Y11710D01*
G01X833Y11705D01*
G01X829Y11696D01*
G01X828Y11684D01*
G01X828Y11516D01*
G01X828Y11516D01*
G01X829Y11503D01*
G01X833Y11494D01*
G01X839Y11489D01*
G01X848Y11488D01*
G37*
G36*
G01X1007Y12816D02*
G01X1007Y12592D01*
G01X1071Y12592D01*
G01X1071Y12592D01*
G01X1080Y12593D01*
G01X1086Y12598D01*
G01X1090Y12607D01*
G01X1092Y12620D01*
G01X1092Y12788D01*
G01X1092Y12788D01*
G01X1090Y12800D01*
G01X1086Y12809D01*
G01X1080Y12814D01*
G01X1071Y12816D01*
G01X1007Y12816D01*
G37*
G36*
G01X848Y13888D02*
G01X848Y13888D01*
G01X928Y13888D01*
G01X928Y13888D01*
G01X936Y13889D01*
G01X942Y13894D01*
G01X946Y13903D01*
G01X948Y13916D01*
G01X948Y14112D01*
G01X828Y14112D01*
G01X828Y13916D01*
G01X828Y13916D01*
G01X829Y13903D01*
G01X833Y13894D01*
G01X839Y13889D01*
G01X848Y13888D01*
G37*
G36*
G01X859Y15372D02*
G01X859Y15372D01*
G01X1203Y15372D01*
G01X1203Y15372D01*
G01X1214Y15374D01*
G01X1221Y15380D01*
G01X1226Y15390D01*
G01X1228Y15404D01*
G01X1228Y15652D01*
G01X1228Y15652D01*
G01X1226Y15665D01*
G01X1222Y15675D01*
G01X1214Y15681D01*
G01X1203Y15684D01*
G01X859Y15684D01*
G01X859Y15684D01*
G01X849Y15681D01*
G01X842Y15675D01*
G01X837Y15665D01*
G01X836Y15652D01*
G01X836Y15404D01*
G01X836Y15404D01*
G01X837Y15390D01*
G01X842Y15380D01*
G01X849Y15374D01*
G01X859Y15372D01*
G37*
G36*
G01X859Y16668D02*
G01X859Y16668D01*
G01X1003Y16668D01*
G01X1003Y16668D01*
G01X1014Y16670D01*
G01X1021Y16676D01*
G01X1026Y16686D01*
G01X1028Y16700D01*
G01X1028Y16948D01*
G01X1028Y16948D01*
G01X1026Y16961D01*
G01X1022Y16971D01*
G01X1014Y16977D01*
G01X1003Y16980D01*
G01X859Y16980D01*
G01X859Y16980D01*
G01X849Y16977D01*
G01X842Y16971D01*
G01X837Y16961D01*
G01X836Y16948D01*
G01X836Y16700D01*
G01X836Y16700D01*
G01X837Y16686D01*
G01X842Y16676D01*
G01X849Y16670D01*
G01X859Y16668D01*
G37*
G36*
G01X1119Y16668D02*
G01X1119Y16668D01*
G01X1203Y16668D01*
G01X1203Y16668D01*
G01X1214Y16670D01*
G01X1221Y16676D01*
G01X1226Y16686D01*
G01X1228Y16700D01*
G01X1228Y16948D01*
G01X1228Y16948D01*
G01X1226Y16961D01*
G01X1222Y16971D01*
G01X1214Y16977D01*
G01X1203Y16980D01*
G01X1119Y16980D01*
G01X1119Y16980D01*
G01X1109Y16977D01*
G01X1101Y16971D01*
G01X1097Y16961D01*
G01X1096Y16948D01*
G01X1096Y16700D01*
G01X1096Y16700D01*
G01X1097Y16686D01*
G01X1101Y16676D01*
G01X1109Y16670D01*
G01X1119Y16668D01*
G37*

%LPD*%
G54D12*
G01X6300Y31600D03*
G54D13*
G01X6319Y23250D03*
G54D14*
G01X6319Y31650D03*
G01X6319Y23400D03*
G54D16*
G01X4819Y24650D03*
G54D17*
G01X5819Y24650D03*
G54D19*
G01X12519Y21150D03*
G01X10706Y20303D03*
G36*
G01X7053Y27615D02*
G01X7285Y27117D01*
G01X6786Y26884D01*
G01X6554Y27383D01*
G01X7053Y27615D01*
G37*
G54D22*
G01X7342Y26344D03*
G01X7765Y25438D03*
G01X8188Y24532D03*
G01X8610Y23625D03*
G01X9032Y22719D03*
G01X9456Y21813D03*
G01X12175Y23080D03*
G01X11752Y23986D03*
G01X11328Y24892D03*
G01X10906Y25798D03*
G01X10484Y26705D03*
G01X10061Y27611D03*
G01X9639Y28517D03*
G54D24*
G01X8939Y17150D03*
G01X11500Y17150D03*
G54D14*
G01X6319Y31650D03*
G01X6319Y23400D03*
G54D16*
G01X4819Y24650D03*
G54D17*
G01X5819Y24650D03*
G54D19*
G01X12519Y21150D03*
G01X10706Y20303D03*
G36*
G01X7053Y27615D02*
G01X7285Y27117D01*
G01X6786Y26884D01*
G01X6554Y27383D01*
G01X7053Y27615D01*
G37*
G54D22*
G01X7342Y26344D03*
G01X7765Y25438D03*
G01X8188Y24532D03*
G01X8610Y23625D03*
G01X9032Y22719D03*
G01X9456Y21813D03*
G01X12175Y23080D03*
G01X11752Y23986D03*
G01X11328Y24892D03*
G01X10906Y25798D03*
G01X10484Y26705D03*
G01X10061Y27611D03*
G01X9639Y28517D03*
G54D24*
G01X8939Y17150D03*
G01X11500Y17150D03*

M00*
M02*